<mxfile host="drawio-plugin" modified="2023-04-29T18:27:55.403Z" agent="5.0 (Windows NT 6.2; Win64; x64) AppleWebKit/537.36 (KHTML, like Gecko) Chrome/98.0.4758.102 Safari/537.36" etag="t_wv-HPIfm7PHFNPEj_N" version="20.5.3" type="embed"><diagram name="Страница 1" id="D8VjGTFtySFa3QZUzDG5"><mxGraphModel dx="1011" dy="1912" grid="1" gridSize="10" guides="1" tooltips="1" connect="1" arrows="1" fold="1" page="1" pageScale="1" pageWidth="827" pageHeight="1169" math="0" shadow="0"><root><mxCell id="0"/><mxCell id="1" parent="0"/><mxCell id="z8009dkVHjQI7auOmtp0-8" value="Trade&lt;br&gt;" style="swimlane;whiteSpace=wrap;html=1;swimlaneFillColor=none;fillColor=none;shadow=0;rounded=0;glass=0;" parent="1" vertex="1"><mxGeometry x="10" y="70" width="970" height="1020" as="geometry"><mxRectangle x="120" y="190" width="140" height="30" as="alternateBounds"/></mxGeometry></mxCell><mxCell id="z8009dkVHjQI7auOmtp0-76" value="DB&lt;br&gt;" style="swimlane;horizontal=0;whiteSpace=wrap;html=1;strokeColor=#666666;fillColor=#33FFFF;" parent="z8009dkVHjQI7auOmtp0-8" vertex="1"><mxGeometry x="20" y="280" width="520" height="740" as="geometry"><mxRectangle x="30" y="600" width="40" height="50" as="alternateBounds"/></mxGeometry></mxCell><mxCell id="57" style="edgeStyle=orthogonalEdgeStyle;rounded=0;orthogonalLoop=1;jettySize=auto;html=1;exitX=0.5;exitY=0;exitDx=0;exitDy=0;exitPerimeter=0;entryX=0.5;entryY=0;entryDx=0;entryDy=0;" edge="1" parent="z8009dkVHjQI7auOmtp0-76" source="z8009dkVHjQI7auOmtp0-1" target="44"><mxGeometry relative="1" as="geometry"><Array as="points"><mxPoint x="223" y="20"/><mxPoint x="109" y="20"/></Array></mxGeometry></mxCell><mxCell id="247" style="edgeStyle=orthogonalEdgeStyle;rounded=0;orthogonalLoop=1;jettySize=auto;html=1;exitX=0.5;exitY=1;exitDx=0;exitDy=0;exitPerimeter=0;entryX=0.5;entryY=0;entryDx=0;entryDy=0;" edge="1" parent="z8009dkVHjQI7auOmtp0-76" source="z8009dkVHjQI7auOmtp0-1" target="221"><mxGeometry relative="1" as="geometry"/></mxCell><mxCell id="z8009dkVHjQI7auOmtp0-1" value="DB&lt;br&gt;" style="shape=cylinder3;whiteSpace=wrap;html=1;boundedLbl=1;backgroundOutline=1;size=15;" parent="z8009dkVHjQI7auOmtp0-76" vertex="1"><mxGeometry x="192.5" y="60" width="60" height="80" as="geometry"/></mxCell><mxCell id="z8009dkVHjQI7auOmtp0-120" style="edgeStyle=orthogonalEdgeStyle;rounded=0;orthogonalLoop=1;jettySize=auto;html=1;exitX=0;exitY=0.5;exitDx=0;exitDy=0;entryX=1;entryY=0.5;entryDx=0;entryDy=0;entryPerimeter=0;" parent="z8009dkVHjQI7auOmtp0-76" source="z8009dkVHjQI7auOmtp0-105" target="z8009dkVHjQI7auOmtp0-1" edge="1"><mxGeometry relative="1" as="geometry"/></mxCell><mxCell id="z8009dkVHjQI7auOmtp0-105" value="DBController(JPA)" style="whiteSpace=wrap;html=1;" parent="z8009dkVHjQI7auOmtp0-76" vertex="1"><mxGeometry x="284" y="70" width="120" height="60" as="geometry"/></mxCell><mxCell id="44" value="DateUpdateData" style="shape=table;startSize=30;container=1;collapsible=1;childLayout=tableLayout;fixedRows=1;rowLines=0;fontStyle=1;align=center;resizeLast=1;fillColor=#A3A3A3;" vertex="1" parent="z8009dkVHjQI7auOmtp0-76"><mxGeometry x="40" y="40" width="137.5" height="120" as="geometry"/></mxCell><mxCell id="45" value="" style="shape=tableRow;horizontal=0;startSize=0;swimlaneHead=0;swimlaneBody=0;fillColor=none;collapsible=0;dropTarget=0;points=[[0,0.5],[1,0.5]];portConstraint=eastwest;top=0;left=0;right=0;bottom=1;" vertex="1" parent="44"><mxGeometry y="30" width="137.5" height="30" as="geometry"/></mxCell><mxCell id="46" value="PK" style="shape=partialRectangle;connectable=0;fillColor=none;top=0;left=0;bottom=0;right=0;fontStyle=1;overflow=hidden;" vertex="1" parent="45"><mxGeometry width="30" height="30" as="geometry"><mxRectangle width="30" height="30" as="alternateBounds"/></mxGeometry></mxCell><mxCell id="47" value="id" style="shape=partialRectangle;connectable=0;fillColor=none;top=0;left=0;bottom=0;right=0;align=left;spacingLeft=6;fontStyle=5;overflow=hidden;" vertex="1" parent="45"><mxGeometry x="30" width="107.5" height="30" as="geometry"><mxRectangle width="107.5" height="30" as="alternateBounds"/></mxGeometry></mxCell><mxCell id="48" value="" style="shape=tableRow;horizontal=0;startSize=0;swimlaneHead=0;swimlaneBody=0;fillColor=none;collapsible=0;dropTarget=0;points=[[0,0.5],[1,0.5]];portConstraint=eastwest;top=0;left=0;right=0;bottom=0;" vertex="1" parent="44"><mxGeometry y="60" width="137.5" height="30" as="geometry"/></mxCell><mxCell id="49" value="" style="shape=partialRectangle;connectable=0;fillColor=none;top=0;left=0;bottom=0;right=0;editable=1;overflow=hidden;" vertex="1" parent="48"><mxGeometry width="30" height="30" as="geometry"><mxRectangle width="30" height="30" as="alternateBounds"/></mxGeometry></mxCell><mxCell id="50" value="data" style="shape=partialRectangle;connectable=0;fillColor=none;top=0;left=0;bottom=0;right=0;align=left;spacingLeft=6;overflow=hidden;" vertex="1" parent="48"><mxGeometry x="30" width="107.5" height="30" as="geometry"><mxRectangle width="107.5" height="30" as="alternateBounds"/></mxGeometry></mxCell><mxCell id="51" value="" style="shape=tableRow;horizontal=0;startSize=0;swimlaneHead=0;swimlaneBody=0;fillColor=none;collapsible=0;dropTarget=0;points=[[0,0.5],[1,0.5]];portConstraint=eastwest;top=0;left=0;right=0;bottom=0;" vertex="1" parent="44"><mxGeometry y="90" width="137.5" height="30" as="geometry"/></mxCell><mxCell id="52" value="" style="shape=partialRectangle;connectable=0;fillColor=none;top=0;left=0;bottom=0;right=0;editable=1;overflow=hidden;" vertex="1" parent="51"><mxGeometry width="30" height="30" as="geometry"><mxRectangle width="30" height="30" as="alternateBounds"/></mxGeometry></mxCell><mxCell id="53" value="message" style="shape=partialRectangle;connectable=0;fillColor=none;top=0;left=0;bottom=0;right=0;align=left;spacingLeft=6;overflow=hidden;" vertex="1" parent="51"><mxGeometry x="30" width="107.5" height="30" as="geometry"><mxRectangle width="107.5" height="30" as="alternateBounds"/></mxGeometry></mxCell><mxCell id="58" value="quality" style="shape=table;startSize=30;container=1;collapsible=1;childLayout=tableLayout;fixedRows=1;rowLines=0;fontStyle=1;align=center;resizeLast=1;fillColor=#fff2cc;strokeColor=#d6b656;" vertex="1" parent="z8009dkVHjQI7auOmtp0-76"><mxGeometry x="30" y="310" width="120" height="120" as="geometry"/></mxCell><mxCell id="59" value="" style="shape=tableRow;horizontal=0;startSize=0;swimlaneHead=0;swimlaneBody=0;fillColor=none;collapsible=0;dropTarget=0;points=[[0,0.5],[1,0.5]];portConstraint=eastwest;top=0;left=0;right=0;bottom=1;" vertex="1" parent="58"><mxGeometry y="30" width="120" height="30" as="geometry"/></mxCell><mxCell id="60" value="PK" style="shape=partialRectangle;connectable=0;fillColor=none;top=0;left=0;bottom=0;right=0;fontStyle=1;overflow=hidden;" vertex="1" parent="59"><mxGeometry width="30" height="30" as="geometry"><mxRectangle width="30" height="30" as="alternateBounds"/></mxGeometry></mxCell><mxCell id="61" value="id" style="shape=partialRectangle;connectable=0;fillColor=none;top=0;left=0;bottom=0;right=0;align=left;spacingLeft=6;fontStyle=5;overflow=hidden;" vertex="1" parent="59"><mxGeometry x="30" width="90" height="30" as="geometry"><mxRectangle width="90" height="30" as="alternateBounds"/></mxGeometry></mxCell><mxCell id="62" value="" style="shape=tableRow;horizontal=0;startSize=0;swimlaneHead=0;swimlaneBody=0;fillColor=none;collapsible=0;dropTarget=0;points=[[0,0.5],[1,0.5]];portConstraint=eastwest;top=0;left=0;right=0;bottom=0;" vertex="1" parent="58"><mxGeometry y="60" width="120" height="30" as="geometry"/></mxCell><mxCell id="63" value="" style="shape=partialRectangle;connectable=0;fillColor=none;top=0;left=0;bottom=0;right=0;editable=1;overflow=hidden;" vertex="1" parent="62"><mxGeometry width="30" height="30" as="geometry"><mxRectangle width="30" height="30" as="alternateBounds"/></mxGeometry></mxCell><mxCell id="64" value="quality" style="shape=partialRectangle;connectable=0;fillColor=none;top=0;left=0;bottom=0;right=0;align=left;spacingLeft=6;overflow=hidden;" vertex="1" parent="62"><mxGeometry x="30" width="90" height="30" as="geometry"><mxRectangle width="90" height="30" as="alternateBounds"/></mxGeometry></mxCell><mxCell id="65" value="" style="shape=tableRow;horizontal=0;startSize=0;swimlaneHead=0;swimlaneBody=0;fillColor=none;collapsible=0;dropTarget=0;points=[[0,0.5],[1,0.5]];portConstraint=eastwest;top=0;left=0;right=0;bottom=0;" vertex="1" parent="58"><mxGeometry y="90" width="120" height="30" as="geometry"/></mxCell><mxCell id="66" value="" style="shape=partialRectangle;connectable=0;fillColor=none;top=0;left=0;bottom=0;right=0;editable=1;overflow=hidden;" vertex="1" parent="65"><mxGeometry width="30" height="30" as="geometry"><mxRectangle width="30" height="30" as="alternateBounds"/></mxGeometry></mxCell><mxCell id="67" value="tag_quality" style="shape=partialRectangle;connectable=0;fillColor=none;top=0;left=0;bottom=0;right=0;align=left;spacingLeft=6;overflow=hidden;" vertex="1" parent="65"><mxGeometry x="30" width="90" height="30" as="geometry"><mxRectangle width="90" height="30" as="alternateBounds"/></mxGeometry></mxCell><mxCell id="71" value="exterior" style="shape=table;startSize=30;container=1;collapsible=1;childLayout=tableLayout;fixedRows=1;rowLines=0;fontStyle=1;align=center;resizeLast=1;fillColor=#dae8fc;strokeColor=#6c8ebf;" vertex="1" parent="z8009dkVHjQI7auOmtp0-76"><mxGeometry x="30" y="180" width="120" height="120" as="geometry"/></mxCell><mxCell id="72" value="" style="shape=tableRow;horizontal=0;startSize=0;swimlaneHead=0;swimlaneBody=0;fillColor=none;collapsible=0;dropTarget=0;points=[[0,0.5],[1,0.5]];portConstraint=eastwest;top=0;left=0;right=0;bottom=1;" vertex="1" parent="71"><mxGeometry y="30" width="120" height="30" as="geometry"/></mxCell><mxCell id="73" value="PK" style="shape=partialRectangle;connectable=0;fillColor=none;top=0;left=0;bottom=0;right=0;fontStyle=1;overflow=hidden;" vertex="1" parent="72"><mxGeometry width="30" height="30" as="geometry"><mxRectangle width="30" height="30" as="alternateBounds"/></mxGeometry></mxCell><mxCell id="74" value="id" style="shape=partialRectangle;connectable=0;fillColor=none;top=0;left=0;bottom=0;right=0;align=left;spacingLeft=6;fontStyle=5;overflow=hidden;" vertex="1" parent="72"><mxGeometry x="30" width="90" height="30" as="geometry"><mxRectangle width="90" height="30" as="alternateBounds"/></mxGeometry></mxCell><mxCell id="75" value="" style="shape=tableRow;horizontal=0;startSize=0;swimlaneHead=0;swimlaneBody=0;fillColor=none;collapsible=0;dropTarget=0;points=[[0,0.5],[1,0.5]];portConstraint=eastwest;top=0;left=0;right=0;bottom=0;" vertex="1" parent="71"><mxGeometry y="60" width="120" height="30" as="geometry"/></mxCell><mxCell id="76" value="" style="shape=partialRectangle;connectable=0;fillColor=none;top=0;left=0;bottom=0;right=0;editable=1;overflow=hidden;" vertex="1" parent="75"><mxGeometry width="30" height="30" as="geometry"><mxRectangle width="30" height="30" as="alternateBounds"/></mxGeometry></mxCell><mxCell id="77" value="exterior" style="shape=partialRectangle;connectable=0;fillColor=none;top=0;left=0;bottom=0;right=0;align=left;spacingLeft=6;overflow=hidden;" vertex="1" parent="75"><mxGeometry x="30" width="90" height="30" as="geometry"><mxRectangle width="90" height="30" as="alternateBounds"/></mxGeometry></mxCell><mxCell id="78" value="" style="shape=tableRow;horizontal=0;startSize=0;swimlaneHead=0;swimlaneBody=0;fillColor=none;collapsible=0;dropTarget=0;points=[[0,0.5],[1,0.5]];portConstraint=eastwest;top=0;left=0;right=0;bottom=0;" vertex="1" parent="71"><mxGeometry y="90" width="120" height="30" as="geometry"/></mxCell><mxCell id="79" value="" style="shape=partialRectangle;connectable=0;fillColor=none;top=0;left=0;bottom=0;right=0;editable=1;overflow=hidden;" vertex="1" parent="78"><mxGeometry width="30" height="30" as="geometry"><mxRectangle width="30" height="30" as="alternateBounds"/></mxGeometry></mxCell><mxCell id="80" value="tag_exterior" style="shape=partialRectangle;connectable=0;fillColor=none;top=0;left=0;bottom=0;right=0;align=left;spacingLeft=6;overflow=hidden;" vertex="1" parent="78"><mxGeometry x="30" width="90" height="30" as="geometry"><mxRectangle width="90" height="30" as="alternateBounds"/></mxGeometry></mxCell><mxCell id="84" value="rarity" style="shape=table;startSize=30;container=1;collapsible=1;childLayout=tableLayout;fixedRows=1;rowLines=0;fontStyle=1;align=center;resizeLast=1;fillColor=#E1D5E7;strokeColor=#b85450;" vertex="1" parent="z8009dkVHjQI7auOmtp0-76"><mxGeometry x="30" y="440" width="120" height="120" as="geometry"/></mxCell><mxCell id="85" value="" style="shape=tableRow;horizontal=0;startSize=0;swimlaneHead=0;swimlaneBody=0;fillColor=none;collapsible=0;dropTarget=0;points=[[0,0.5],[1,0.5]];portConstraint=eastwest;top=0;left=0;right=0;bottom=1;" vertex="1" parent="84"><mxGeometry y="30" width="120" height="30" as="geometry"/></mxCell><mxCell id="86" value="PK" style="shape=partialRectangle;connectable=0;fillColor=none;top=0;left=0;bottom=0;right=0;fontStyle=1;overflow=hidden;" vertex="1" parent="85"><mxGeometry width="30" height="30" as="geometry"><mxRectangle width="30" height="30" as="alternateBounds"/></mxGeometry></mxCell><mxCell id="87" value="id" style="shape=partialRectangle;connectable=0;fillColor=none;top=0;left=0;bottom=0;right=0;align=left;spacingLeft=6;fontStyle=5;overflow=hidden;" vertex="1" parent="85"><mxGeometry x="30" width="90" height="30" as="geometry"><mxRectangle width="90" height="30" as="alternateBounds"/></mxGeometry></mxCell><mxCell id="88" value="" style="shape=tableRow;horizontal=0;startSize=0;swimlaneHead=0;swimlaneBody=0;fillColor=none;collapsible=0;dropTarget=0;points=[[0,0.5],[1,0.5]];portConstraint=eastwest;top=0;left=0;right=0;bottom=0;" vertex="1" parent="84"><mxGeometry y="60" width="120" height="30" as="geometry"/></mxCell><mxCell id="89" value="" style="shape=partialRectangle;connectable=0;fillColor=none;top=0;left=0;bottom=0;right=0;editable=1;overflow=hidden;" vertex="1" parent="88"><mxGeometry width="30" height="30" as="geometry"><mxRectangle width="30" height="30" as="alternateBounds"/></mxGeometry></mxCell><mxCell id="90" value="rarity" style="shape=partialRectangle;connectable=0;fillColor=none;top=0;left=0;bottom=0;right=0;align=left;spacingLeft=6;overflow=hidden;" vertex="1" parent="88"><mxGeometry x="30" width="90" height="30" as="geometry"><mxRectangle width="90" height="30" as="alternateBounds"/></mxGeometry></mxCell><mxCell id="91" value="" style="shape=tableRow;horizontal=0;startSize=0;swimlaneHead=0;swimlaneBody=0;fillColor=none;collapsible=0;dropTarget=0;points=[[0,0.5],[1,0.5]];portConstraint=eastwest;top=0;left=0;right=0;bottom=0;" vertex="1" parent="84"><mxGeometry y="90" width="120" height="30" as="geometry"/></mxCell><mxCell id="92" value="" style="shape=partialRectangle;connectable=0;fillColor=none;top=0;left=0;bottom=0;right=0;editable=1;overflow=hidden;" vertex="1" parent="91"><mxGeometry width="30" height="30" as="geometry"><mxRectangle width="30" height="30" as="alternateBounds"/></mxGeometry></mxCell><mxCell id="93" value="tag_rarity" style="shape=partialRectangle;connectable=0;fillColor=none;top=0;left=0;bottom=0;right=0;align=left;spacingLeft=6;overflow=hidden;" vertex="1" parent="91"><mxGeometry x="30" width="90" height="30" as="geometry"><mxRectangle width="90" height="30" as="alternateBounds"/></mxGeometry></mxCell><mxCell id="94" value="collection" style="shape=table;startSize=30;container=1;collapsible=1;childLayout=tableLayout;fixedRows=1;rowLines=0;fontStyle=1;align=center;resizeLast=1;fillColor=#D5E8D4;strokeColor=#6c8ebf;" vertex="1" parent="z8009dkVHjQI7auOmtp0-76"><mxGeometry x="30" y="590" width="120" height="120" as="geometry"/></mxCell><mxCell id="95" value="" style="shape=tableRow;horizontal=0;startSize=0;swimlaneHead=0;swimlaneBody=0;fillColor=none;collapsible=0;dropTarget=0;points=[[0,0.5],[1,0.5]];portConstraint=eastwest;top=0;left=0;right=0;bottom=1;" vertex="1" parent="94"><mxGeometry y="30" width="120" height="30" as="geometry"/></mxCell><mxCell id="96" value="PK" style="shape=partialRectangle;connectable=0;fillColor=none;top=0;left=0;bottom=0;right=0;fontStyle=1;overflow=hidden;" vertex="1" parent="95"><mxGeometry width="30" height="30" as="geometry"><mxRectangle width="30" height="30" as="alternateBounds"/></mxGeometry></mxCell><mxCell id="97" value="id" style="shape=partialRectangle;connectable=0;fillColor=none;top=0;left=0;bottom=0;right=0;align=left;spacingLeft=6;fontStyle=5;overflow=hidden;" vertex="1" parent="95"><mxGeometry x="30" width="90" height="30" as="geometry"><mxRectangle width="90" height="30" as="alternateBounds"/></mxGeometry></mxCell><mxCell id="98" value="" style="shape=tableRow;horizontal=0;startSize=0;swimlaneHead=0;swimlaneBody=0;fillColor=none;collapsible=0;dropTarget=0;points=[[0,0.5],[1,0.5]];portConstraint=eastwest;top=0;left=0;right=0;bottom=0;" vertex="1" parent="94"><mxGeometry y="60" width="120" height="30" as="geometry"/></mxCell><mxCell id="99" value="" style="shape=partialRectangle;connectable=0;fillColor=none;top=0;left=0;bottom=0;right=0;editable=1;overflow=hidden;" vertex="1" parent="98"><mxGeometry width="30" height="30" as="geometry"><mxRectangle width="30" height="30" as="alternateBounds"/></mxGeometry></mxCell><mxCell id="100" value="name_case" style="shape=partialRectangle;connectable=0;fillColor=none;top=0;left=0;bottom=0;right=0;align=left;spacingLeft=6;overflow=hidden;" vertex="1" parent="98"><mxGeometry x="30" width="90" height="30" as="geometry"><mxRectangle width="90" height="30" as="alternateBounds"/></mxGeometry></mxCell><mxCell id="101" value="" style="shape=tableRow;horizontal=0;startSize=0;swimlaneHead=0;swimlaneBody=0;fillColor=none;collapsible=0;dropTarget=0;points=[[0,0.5],[1,0.5]];portConstraint=eastwest;top=0;left=0;right=0;bottom=0;" vertex="1" parent="94"><mxGeometry y="90" width="120" height="30" as="geometry"/></mxCell><mxCell id="102" value="" style="shape=partialRectangle;connectable=0;fillColor=none;top=0;left=0;bottom=0;right=0;editable=1;overflow=hidden;" vertex="1" parent="101"><mxGeometry width="30" height="30" as="geometry"><mxRectangle width="30" height="30" as="alternateBounds"/></mxGeometry></mxCell><mxCell id="103" value="tag_case" style="shape=partialRectangle;connectable=0;fillColor=none;top=0;left=0;bottom=0;right=0;align=left;spacingLeft=6;overflow=hidden;" vertex="1" parent="101"><mxGeometry x="30" width="90" height="30" as="geometry"><mxRectangle width="90" height="30" as="alternateBounds"/></mxGeometry></mxCell><mxCell id="104" value="data_weapon" style="shape=table;startSize=30;container=1;collapsible=1;childLayout=tableLayout;fixedRows=1;rowLines=0;fontStyle=1;align=center;resizeLast=1;fillColor=#D087BD;strokeColor=#6c8ebf;" vertex="1" parent="z8009dkVHjQI7auOmtp0-76"><mxGeometry x="370" y="440" width="120" height="120" as="geometry"/></mxCell><mxCell id="105" value="" style="shape=tableRow;horizontal=0;startSize=0;swimlaneHead=0;swimlaneBody=0;fillColor=none;collapsible=0;dropTarget=0;points=[[0,0.5],[1,0.5]];portConstraint=eastwest;top=0;left=0;right=0;bottom=1;" vertex="1" parent="104"><mxGeometry y="30" width="120" height="30" as="geometry"/></mxCell><mxCell id="106" value="PK" style="shape=partialRectangle;connectable=0;fillColor=none;top=0;left=0;bottom=0;right=0;fontStyle=1;overflow=hidden;" vertex="1" parent="105"><mxGeometry width="30" height="30" as="geometry"><mxRectangle width="30" height="30" as="alternateBounds"/></mxGeometry></mxCell><mxCell id="107" value="id" style="shape=partialRectangle;connectable=0;fillColor=none;top=0;left=0;bottom=0;right=0;align=left;spacingLeft=6;fontStyle=5;overflow=hidden;" vertex="1" parent="105"><mxGeometry x="30" width="90" height="30" as="geometry"><mxRectangle width="90" height="30" as="alternateBounds"/></mxGeometry></mxCell><mxCell id="108" value="" style="shape=tableRow;horizontal=0;startSize=0;swimlaneHead=0;swimlaneBody=0;fillColor=none;collapsible=0;dropTarget=0;points=[[0,0.5],[1,0.5]];portConstraint=eastwest;top=0;left=0;right=0;bottom=0;" vertex="1" parent="104"><mxGeometry y="60" width="120" height="30" as="geometry"/></mxCell><mxCell id="109" value="" style="shape=partialRectangle;connectable=0;fillColor=none;top=0;left=0;bottom=0;right=0;editable=1;overflow=hidden;" vertex="1" parent="108"><mxGeometry width="30" height="30" as="geometry"><mxRectangle width="30" height="30" as="alternateBounds"/></mxGeometry></mxCell><mxCell id="110" value="weapon" style="shape=partialRectangle;connectable=0;fillColor=none;top=0;left=0;bottom=0;right=0;align=left;spacingLeft=6;overflow=hidden;" vertex="1" parent="108"><mxGeometry x="30" width="90" height="30" as="geometry"><mxRectangle width="90" height="30" as="alternateBounds"/></mxGeometry></mxCell><mxCell id="111" value="" style="shape=tableRow;horizontal=0;startSize=0;swimlaneHead=0;swimlaneBody=0;fillColor=none;collapsible=0;dropTarget=0;points=[[0,0.5],[1,0.5]];portConstraint=eastwest;top=0;left=0;right=0;bottom=0;" vertex="1" parent="104"><mxGeometry y="90" width="120" height="30" as="geometry"/></mxCell><mxCell id="112" value="" style="shape=partialRectangle;connectable=0;fillColor=none;top=0;left=0;bottom=0;right=0;editable=1;overflow=hidden;" vertex="1" parent="111"><mxGeometry width="30" height="30" as="geometry"><mxRectangle width="30" height="30" as="alternateBounds"/></mxGeometry></mxCell><mxCell id="113" value="tag_weapon" style="shape=partialRectangle;connectable=0;fillColor=none;top=0;left=0;bottom=0;right=0;align=left;spacingLeft=6;overflow=hidden;" vertex="1" parent="111"><mxGeometry x="30" width="90" height="30" as="geometry"><mxRectangle width="90" height="30" as="alternateBounds"/></mxGeometry></mxCell><mxCell id="114" value="weapon" style="shape=table;startSize=26;container=1;collapsible=1;childLayout=tableLayout;fixedRows=1;rowLines=0;fontStyle=1;align=center;resizeLast=1;fillColor=#f5f5f5;fontColor=#333333;strokeColor=#666666;" vertex="1" parent="z8009dkVHjQI7auOmtp0-76"><mxGeometry x="195" y="430" width="130" height="176.25" as="geometry"><mxRectangle x="210" y="413.75" width="90" height="30" as="alternateBounds"/></mxGeometry></mxCell><mxCell id="115" value="" style="shape=tableRow;horizontal=0;startSize=0;swimlaneHead=0;swimlaneBody=0;fillColor=none;collapsible=0;dropTarget=0;points=[[0,0.5],[1,0.5]];portConstraint=eastwest;top=0;left=0;right=0;bottom=1;" vertex="1" parent="114"><mxGeometry y="26" width="130" height="30" as="geometry"/></mxCell><mxCell id="116" value="PK" style="shape=partialRectangle;connectable=0;fillColor=none;top=0;left=0;bottom=0;right=0;fontStyle=1;overflow=hidden;" vertex="1" parent="115"><mxGeometry width="30" height="30" as="geometry"><mxRectangle width="30" height="30" as="alternateBounds"/></mxGeometry></mxCell><mxCell id="117" value="id" style="shape=partialRectangle;connectable=0;fillColor=none;top=0;left=0;bottom=0;right=0;align=left;spacingLeft=6;fontStyle=5;overflow=hidden;" vertex="1" parent="115"><mxGeometry x="30" width="100" height="30" as="geometry"><mxRectangle width="100" height="30" as="alternateBounds"/></mxGeometry></mxCell><mxCell id="118" value="" style="shape=tableRow;horizontal=0;startSize=0;swimlaneHead=0;swimlaneBody=0;fillColor=none;collapsible=0;dropTarget=0;points=[[0,0.5],[1,0.5]];portConstraint=eastwest;top=0;left=0;right=0;bottom=0;" vertex="1" parent="114"><mxGeometry y="56" width="130" height="30" as="geometry"/></mxCell><mxCell id="119" value="" style="shape=partialRectangle;connectable=0;fillColor=none;top=0;left=0;bottom=0;right=0;editable=1;overflow=hidden;" vertex="1" parent="118"><mxGeometry width="30" height="30" as="geometry"><mxRectangle width="30" height="30" as="alternateBounds"/></mxGeometry></mxCell><mxCell id="120" value="name" style="shape=partialRectangle;connectable=0;fillColor=none;top=0;left=0;bottom=0;right=0;align=left;spacingLeft=6;overflow=hidden;" vertex="1" parent="118"><mxGeometry x="30" width="100" height="30" as="geometry"><mxRectangle width="100" height="30" as="alternateBounds"/></mxGeometry></mxCell><mxCell id="121" value="" style="shape=tableRow;horizontal=0;startSize=0;swimlaneHead=0;swimlaneBody=0;fillColor=none;collapsible=0;dropTarget=0;points=[[0,0.5],[1,0.5]];portConstraint=eastwest;top=0;left=0;right=0;bottom=0;" vertex="1" parent="114"><mxGeometry y="86" width="130" height="30" as="geometry"/></mxCell><mxCell id="122" value="FK1" style="shape=partialRectangle;connectable=0;fillColor=none;top=0;left=0;bottom=0;right=0;editable=1;overflow=hidden;" vertex="1" parent="121"><mxGeometry width="30" height="30" as="geometry"><mxRectangle width="30" height="30" as="alternateBounds"/></mxGeometry></mxCell><mxCell id="123" value="rarity_id" style="shape=partialRectangle;connectable=0;fillColor=#E1D5E7;top=0;left=0;bottom=0;right=0;align=left;spacingLeft=6;overflow=hidden;" vertex="1" parent="121"><mxGeometry x="30" width="100" height="30" as="geometry"><mxRectangle width="100" height="30" as="alternateBounds"/></mxGeometry></mxCell><mxCell id="124" value="" style="shape=tableRow;horizontal=0;startSize=0;swimlaneHead=0;swimlaneBody=0;fillColor=none;collapsible=0;dropTarget=0;points=[[0,0.5],[1,0.5]];portConstraint=eastwest;top=0;left=0;right=0;bottom=0;" vertex="1" parent="114"><mxGeometry y="116" width="130" height="30" as="geometry"/></mxCell><mxCell id="125" value="FK2" style="shape=partialRectangle;connectable=0;fillColor=none;top=0;left=0;bottom=0;right=0;editable=1;overflow=hidden;" vertex="1" parent="124"><mxGeometry width="30" height="30" as="geometry"><mxRectangle width="30" height="30" as="alternateBounds"/></mxGeometry></mxCell><mxCell id="126" value="data_weapon_id" style="shape=partialRectangle;connectable=0;fillColor=#D087BD;top=0;left=0;bottom=0;right=0;align=left;spacingLeft=6;overflow=hidden;" vertex="1" parent="124"><mxGeometry x="30" width="100" height="30" as="geometry"><mxRectangle width="100" height="30" as="alternateBounds"/></mxGeometry></mxCell><mxCell id="218" style="shape=tableRow;horizontal=0;startSize=0;swimlaneHead=0;swimlaneBody=0;fillColor=none;collapsible=0;dropTarget=0;points=[[0,0.5],[1,0.5]];portConstraint=eastwest;top=0;left=0;right=0;bottom=0;" vertex="1" parent="114"><mxGeometry y="146" width="130" height="30" as="geometry"/></mxCell><mxCell id="219" value="FK3" style="shape=partialRectangle;connectable=0;fillColor=none;top=0;left=0;bottom=0;right=0;editable=1;overflow=hidden;" vertex="1" parent="218"><mxGeometry width="30" height="30" as="geometry"><mxRectangle width="30" height="30" as="alternateBounds"/></mxGeometry></mxCell><mxCell id="220" value="collection_id" style="shape=partialRectangle;connectable=0;fillColor=#D5E8D4;top=0;left=0;bottom=0;right=0;align=left;spacingLeft=6;overflow=hidden;" vertex="1" parent="218"><mxGeometry x="30" width="100" height="30" as="geometry"><mxRectangle width="100" height="30" as="alternateBounds"/></mxGeometry></mxCell><mxCell id="221" value="skin" style="shape=table;startSize=30;container=1;collapsible=1;childLayout=tableLayout;fixedRows=1;rowLines=0;fontStyle=1;align=center;resizeLast=1;" vertex="1" parent="z8009dkVHjQI7auOmtp0-76"><mxGeometry x="195" y="174.5" width="130" height="210" as="geometry"/></mxCell><mxCell id="222" value="" style="shape=tableRow;horizontal=0;startSize=0;swimlaneHead=0;swimlaneBody=0;fillColor=none;collapsible=0;dropTarget=0;points=[[0,0.5],[1,0.5]];portConstraint=eastwest;top=0;left=0;right=0;bottom=1;" vertex="1" parent="221"><mxGeometry y="30" width="130" height="30" as="geometry"/></mxCell><mxCell id="223" value="PK" style="shape=partialRectangle;connectable=0;fillColor=none;top=0;left=0;bottom=0;right=0;fontStyle=1;overflow=hidden;" vertex="1" parent="222"><mxGeometry width="30" height="30" as="geometry"><mxRectangle width="30" height="30" as="alternateBounds"/></mxGeometry></mxCell><mxCell id="224" value="id" style="shape=partialRectangle;connectable=0;fillColor=none;top=0;left=0;bottom=0;right=0;align=left;spacingLeft=6;fontStyle=5;overflow=hidden;" vertex="1" parent="222"><mxGeometry x="30" width="100" height="30" as="geometry"><mxRectangle width="100" height="30" as="alternateBounds"/></mxGeometry></mxCell><mxCell id="225" value="" style="shape=tableRow;horizontal=0;startSize=0;swimlaneHead=0;swimlaneBody=0;fillColor=none;collapsible=0;dropTarget=0;points=[[0,0.5],[1,0.5]];portConstraint=eastwest;top=0;left=0;right=0;bottom=0;" vertex="1" parent="221"><mxGeometry y="60" width="130" height="30" as="geometry"/></mxCell><mxCell id="226" value="" style="shape=partialRectangle;connectable=0;fillColor=none;top=0;left=0;bottom=0;right=0;editable=1;overflow=hidden;" vertex="1" parent="225"><mxGeometry width="30" height="30" as="geometry"><mxRectangle width="30" height="30" as="alternateBounds"/></mxGeometry></mxCell><mxCell id="227" value="price" style="shape=partialRectangle;connectable=0;fillColor=none;top=0;left=0;bottom=0;right=0;align=left;spacingLeft=6;overflow=hidden;" vertex="1" parent="225"><mxGeometry x="30" width="100" height="30" as="geometry"><mxRectangle width="100" height="30" as="alternateBounds"/></mxGeometry></mxCell><mxCell id="228" value="" style="shape=tableRow;horizontal=0;startSize=0;swimlaneHead=0;swimlaneBody=0;fillColor=none;collapsible=0;dropTarget=0;points=[[0,0.5],[1,0.5]];portConstraint=eastwest;top=0;left=0;right=0;bottom=0;" vertex="1" parent="221"><mxGeometry y="90" width="130" height="30" as="geometry"/></mxCell><mxCell id="229" value="" style="shape=partialRectangle;connectable=0;fillColor=none;top=0;left=0;bottom=0;right=0;editable=1;overflow=hidden;" vertex="1" parent="228"><mxGeometry width="30" height="30" as="geometry"><mxRectangle width="30" height="30" as="alternateBounds"/></mxGeometry></mxCell><mxCell id="230" value="quantity" style="shape=partialRectangle;connectable=0;fillColor=none;top=0;left=0;bottom=0;right=0;align=left;spacingLeft=6;overflow=hidden;" vertex="1" parent="228"><mxGeometry x="30" width="100" height="30" as="geometry"><mxRectangle width="100" height="30" as="alternateBounds"/></mxGeometry></mxCell><mxCell id="231" value="" style="shape=tableRow;horizontal=0;startSize=0;swimlaneHead=0;swimlaneBody=0;fillColor=none;collapsible=0;dropTarget=0;points=[[0,0.5],[1,0.5]];portConstraint=eastwest;top=0;left=0;right=0;bottom=0;" vertex="1" parent="221"><mxGeometry y="120" width="130" height="30" as="geometry"/></mxCell><mxCell id="232" value="FK1" style="shape=partialRectangle;connectable=0;fillColor=none;top=0;left=0;bottom=0;right=0;editable=1;overflow=hidden;" vertex="1" parent="231"><mxGeometry width="30" height="30" as="geometry"><mxRectangle width="30" height="30" as="alternateBounds"/></mxGeometry></mxCell><mxCell id="233" value="weapon_id" style="shape=partialRectangle;connectable=0;fillColor=#F5F5F5;top=0;left=0;bottom=0;right=0;align=left;spacingLeft=6;overflow=hidden;" vertex="1" parent="231"><mxGeometry x="30" width="100" height="30" as="geometry"><mxRectangle width="100" height="30" as="alternateBounds"/></mxGeometry></mxCell><mxCell id="241" style="shape=tableRow;horizontal=0;startSize=0;swimlaneHead=0;swimlaneBody=0;fillColor=none;collapsible=0;dropTarget=0;points=[[0,0.5],[1,0.5]];portConstraint=eastwest;top=0;left=0;right=0;bottom=0;" vertex="1" parent="221"><mxGeometry y="150" width="130" height="30" as="geometry"/></mxCell><mxCell id="242" value="FK2" style="shape=partialRectangle;connectable=0;fillColor=none;top=0;left=0;bottom=0;right=0;editable=1;overflow=hidden;" vertex="1" parent="241"><mxGeometry width="30" height="30" as="geometry"><mxRectangle width="30" height="30" as="alternateBounds"/></mxGeometry></mxCell><mxCell id="243" value="exterior_id" style="shape=partialRectangle;connectable=0;fillColor=#dae8fc;top=0;left=0;bottom=0;right=0;align=left;spacingLeft=6;overflow=hidden;strokeColor=#6c8ebf;" vertex="1" parent="241"><mxGeometry x="30" width="100" height="30" as="geometry"><mxRectangle width="100" height="30" as="alternateBounds"/></mxGeometry></mxCell><mxCell id="244" style="shape=tableRow;horizontal=0;startSize=0;swimlaneHead=0;swimlaneBody=0;fillColor=none;collapsible=0;dropTarget=0;points=[[0,0.5],[1,0.5]];portConstraint=eastwest;top=0;left=0;right=0;bottom=0;" vertex="1" parent="221"><mxGeometry y="180" width="130" height="30" as="geometry"/></mxCell><mxCell id="245" value="FK3" style="shape=partialRectangle;connectable=0;fillColor=none;top=0;left=0;bottom=0;right=0;editable=1;overflow=hidden;" vertex="1" parent="244"><mxGeometry width="30" height="30" as="geometry"><mxRectangle width="30" height="30" as="alternateBounds"/></mxGeometry></mxCell><mxCell id="246" value="quality_id" style="shape=partialRectangle;connectable=0;fillColor=#fff2cc;top=0;left=0;bottom=0;right=0;align=left;spacingLeft=6;overflow=hidden;strokeColor=#d6b656;" vertex="1" parent="244"><mxGeometry x="30" width="100" height="30" as="geometry"><mxRectangle width="100" height="30" as="alternateBounds"/></mxGeometry></mxCell><mxCell id="250" style="edgeStyle=orthogonalEdgeStyle;rounded=0;orthogonalLoop=1;jettySize=auto;html=1;exitX=0;exitY=0.5;exitDx=0;exitDy=0;entryX=1;entryY=0.5;entryDx=0;entryDy=0;endArrow=ERmany;endFill=0;" edge="1" parent="z8009dkVHjQI7auOmtp0-76" source="115" target="231"><mxGeometry relative="1" as="geometry"/></mxCell><mxCell id="251" style="edgeStyle=orthogonalEdgeStyle;rounded=0;orthogonalLoop=1;jettySize=auto;html=1;exitX=1;exitY=0.5;exitDx=0;exitDy=0;endArrow=ERmany;endFill=0;" edge="1" parent="z8009dkVHjQI7auOmtp0-76" source="72" target="241"><mxGeometry relative="1" as="geometry"/></mxCell><mxCell id="252" style="edgeStyle=orthogonalEdgeStyle;rounded=0;orthogonalLoop=1;jettySize=auto;html=1;exitX=1;exitY=0.5;exitDx=0;exitDy=0;entryX=0;entryY=0.5;entryDx=0;entryDy=0;endArrow=ERmany;endFill=0;" edge="1" parent="z8009dkVHjQI7auOmtp0-76" source="59" target="244"><mxGeometry relative="1" as="geometry"/></mxCell><mxCell id="253" style="edgeStyle=orthogonalEdgeStyle;rounded=0;orthogonalLoop=1;jettySize=auto;html=1;exitX=1;exitY=0.5;exitDx=0;exitDy=0;entryX=0;entryY=0.5;entryDx=0;entryDy=0;endArrow=ERmany;endFill=0;" edge="1" parent="z8009dkVHjQI7auOmtp0-76" source="95" target="218"><mxGeometry relative="1" as="geometry"/></mxCell><mxCell id="254" style="edgeStyle=orthogonalEdgeStyle;rounded=0;orthogonalLoop=1;jettySize=auto;html=1;exitX=0;exitY=0.5;exitDx=0;exitDy=0;entryX=1;entryY=0.75;entryDx=0;entryDy=0;endArrow=ERmany;endFill=0;" edge="1" parent="z8009dkVHjQI7auOmtp0-76" source="105" target="114"><mxGeometry relative="1" as="geometry"/></mxCell><mxCell id="255" style="edgeStyle=orthogonalEdgeStyle;rounded=0;orthogonalLoop=1;jettySize=auto;html=1;exitX=1;exitY=0.5;exitDx=0;exitDy=0;entryX=0;entryY=0.5;entryDx=0;entryDy=0;endArrow=ERmany;endFill=0;" edge="1" parent="z8009dkVHjQI7auOmtp0-76" source="85" target="121"><mxGeometry relative="1" as="geometry"/></mxCell><mxCell id="z8009dkVHjQI7auOmtp0-128" value="Server&lt;br&gt;" style="swimlane;horizontal=0;whiteSpace=wrap;html=1;strokeColor=#666666;fillColor=#3399FF;" parent="z8009dkVHjQI7auOmtp0-8" vertex="1"><mxGeometry x="20" y="30" width="410" height="190" as="geometry"><mxRectangle x="30" y="240" width="40" height="70" as="alternateBounds"/></mxGeometry></mxCell><mxCell id="z8009dkVHjQI7auOmtp0-131" value="Model" style="rounded=0;whiteSpace=wrap;html=1;" parent="z8009dkVHjQI7auOmtp0-128" vertex="1"><mxGeometry x="290" y="70" width="100" height="40" as="geometry"/></mxCell><mxCell id="z8009dkVHjQI7auOmtp0-146" style="edgeStyle=orthogonalEdgeStyle;rounded=0;orthogonalLoop=1;jettySize=auto;html=1;entryX=0;entryY=0.5;entryDx=0;entryDy=0;" parent="z8009dkVHjQI7auOmtp0-128" source="z8009dkVHjQI7auOmtp0-127" target="z8009dkVHjQI7auOmtp0-131" edge="1"><mxGeometry relative="1" as="geometry"/></mxCell><mxCell id="z8009dkVHjQI7auOmtp0-148" style="edgeStyle=orthogonalEdgeStyle;rounded=0;orthogonalLoop=1;jettySize=auto;html=1;exitX=0;exitY=0.5;exitDx=0;exitDy=0;entryX=0;entryY=0;entryDx=80;entryDy=65;entryPerimeter=0;" parent="z8009dkVHjQI7auOmtp0-128" source="z8009dkVHjQI7auOmtp0-127" target="z8009dkVHjQI7auOmtp0-135" edge="1"><mxGeometry relative="1" as="geometry"/></mxCell><mxCell id="z8009dkVHjQI7auOmtp0-127" value="Service&lt;br&gt;" style="rounded=0;whiteSpace=wrap;html=1;" parent="z8009dkVHjQI7auOmtp0-128" vertex="1"><mxGeometry x="160" y="70" width="100" height="40" as="geometry"/></mxCell><mxCell id="z8009dkVHjQI7auOmtp0-124" value="Controller" style="rounded=0;whiteSpace=wrap;html=1;" parent="z8009dkVHjQI7auOmtp0-128" vertex="1"><mxGeometry x="160" y="10" width="100" height="40" as="geometry"/></mxCell><mxCell id="z8009dkVHjQI7auOmtp0-133" style="edgeStyle=orthogonalEdgeStyle;rounded=0;orthogonalLoop=1;jettySize=auto;html=1;exitX=0.5;exitY=1;exitDx=0;exitDy=0;entryX=0.5;entryY=0;entryDx=0;entryDy=0;" parent="z8009dkVHjQI7auOmtp0-128" source="z8009dkVHjQI7auOmtp0-124" target="z8009dkVHjQI7auOmtp0-127" edge="1"><mxGeometry relative="1" as="geometry"/></mxCell><mxCell id="z8009dkVHjQI7auOmtp0-135" value="View" style="shape=note;whiteSpace=wrap;html=1;backgroundOutline=1;darkOpacity=0.05;" parent="z8009dkVHjQI7auOmtp0-128" vertex="1"><mxGeometry x="30" y="70" width="80" height="100" as="geometry"/></mxCell><mxCell id="z8009dkVHjQI7auOmtp0-144" style="edgeStyle=orthogonalEdgeStyle;rounded=0;orthogonalLoop=1;jettySize=auto;html=1;exitX=0.5;exitY=1;exitDx=0;exitDy=0;entryX=0.5;entryY=0;entryDx=0;entryDy=0;" parent="z8009dkVHjQI7auOmtp0-8" source="z8009dkVHjQI7auOmtp0-131" target="z8009dkVHjQI7auOmtp0-105" edge="1"><mxGeometry relative="1" as="geometry"><Array as="points"><mxPoint x="360" y="230"/><mxPoint x="354" y="230"/></Array></mxGeometry></mxCell><mxCell id="38" style="edgeStyle=orthogonalEdgeStyle;rounded=0;orthogonalLoop=1;jettySize=auto;html=1;exitX=1;exitY=0.5;exitDx=0;exitDy=0;entryX=0.5;entryY=0;entryDx=0;entryDy=0;" parent="z8009dkVHjQI7auOmtp0-8" source="z8009dkVHjQI7auOmtp0-131" target="z8009dkVHjQI7auOmtp0-117" edge="1"><mxGeometry relative="1" as="geometry"/></mxCell><mxCell id="z8009dkVHjQI7auOmtp0-86" value="Parser&lt;br&gt;" style="swimlane;horizontal=0;whiteSpace=wrap;html=1;strokeColor=#666666;fillColor=#66FF66;" parent="z8009dkVHjQI7auOmtp0-8" vertex="1"><mxGeometry x="560" y="280" width="410" height="330" as="geometry"><mxRectangle x="470" y="720" width="40" height="70" as="alternateBounds"/></mxGeometry></mxCell><mxCell id="z8009dkVHjQI7auOmtp0-90" value="LinkManager" style="rounded=0;whiteSpace=wrap;html=1;" parent="z8009dkVHjQI7auOmtp0-86" vertex="1"><mxGeometry x="300" y="60" width="100" height="40" as="geometry"/></mxCell><mxCell id="z8009dkVHjQI7auOmtp0-103" value="" style="edgeStyle=orthogonalEdgeStyle;rounded=0;orthogonalLoop=1;jettySize=auto;html=1;" parent="z8009dkVHjQI7auOmtp0-86" source="z8009dkVHjQI7auOmtp0-93" target="z8009dkVHjQI7auOmtp0-102" edge="1"><mxGeometry relative="1" as="geometry"/></mxCell><mxCell id="z8009dkVHjQI7auOmtp0-93" value="JsonPackager" style="rounded=0;whiteSpace=wrap;html=1;" parent="z8009dkVHjQI7auOmtp0-86" vertex="1"><mxGeometry x="180" y="130" width="100" height="40" as="geometry"/></mxCell><mxCell id="z8009dkVHjQI7auOmtp0-85" value="Steam&lt;br&gt;" style="ellipse;shape=cloud;whiteSpace=wrap;html=1;" parent="z8009dkVHjQI7auOmtp0-86" vertex="1"><mxGeometry x="30" y="40" width="120" height="80" as="geometry"/></mxCell><mxCell id="z8009dkVHjQI7auOmtp0-102" value="Attributes" style="rounded=0;whiteSpace=wrap;html=1;" parent="z8009dkVHjQI7auOmtp0-86" vertex="1"><mxGeometry x="180" y="195" width="100" height="40" as="geometry"/></mxCell><mxCell id="40" style="edgeStyle=orthogonalEdgeStyle;rounded=0;orthogonalLoop=1;jettySize=auto;html=1;exitX=1;exitY=0.5;exitDx=0;exitDy=0;entryX=0;entryY=0.5;entryDx=0;entryDy=0;" edge="1" parent="z8009dkVHjQI7auOmtp0-86" source="z8009dkVHjQI7auOmtp0-117" target="z8009dkVHjQI7auOmtp0-90"><mxGeometry relative="1" as="geometry"/></mxCell><mxCell id="41" style="edgeStyle=orthogonalEdgeStyle;rounded=0;orthogonalLoop=1;jettySize=auto;html=1;exitX=0;exitY=0.5;exitDx=0;exitDy=0;entryX=0.875;entryY=0.5;entryDx=0;entryDy=0;entryPerimeter=0;" edge="1" parent="z8009dkVHjQI7auOmtp0-86" source="z8009dkVHjQI7auOmtp0-117" target="z8009dkVHjQI7auOmtp0-85"><mxGeometry relative="1" as="geometry"/></mxCell><mxCell id="43" style="edgeStyle=orthogonalEdgeStyle;rounded=0;orthogonalLoop=1;jettySize=auto;html=1;exitX=0.5;exitY=1;exitDx=0;exitDy=0;entryX=0.5;entryY=0;entryDx=0;entryDy=0;" edge="1" parent="z8009dkVHjQI7auOmtp0-86" source="z8009dkVHjQI7auOmtp0-117" target="z8009dkVHjQI7auOmtp0-93"><mxGeometry relative="1" as="geometry"/></mxCell><mxCell id="z8009dkVHjQI7auOmtp0-117" value="Parser" style="rounded=0;whiteSpace=wrap;html=1;" parent="z8009dkVHjQI7auOmtp0-86" vertex="1"><mxGeometry x="180" y="60" width="100" height="40" as="geometry"/></mxCell><mxCell id="37" style="edgeStyle=orthogonalEdgeStyle;rounded=0;orthogonalLoop=1;jettySize=auto;html=1;exitX=0.55;exitY=0.95;exitDx=0;exitDy=0;exitPerimeter=0;entryX=0.5;entryY=0;entryDx=0;entryDy=0;" parent="1" source="z8009dkVHjQI7auOmtp0-143" target="z8009dkVHjQI7auOmtp0-124" edge="1"><mxGeometry relative="1" as="geometry"/></mxCell><mxCell id="z8009dkVHjQI7auOmtp0-143" value="Web" style="ellipse;shape=cloud;whiteSpace=wrap;html=1;fillColor=#FFCCE6;" parent="1" vertex="1"><mxGeometry x="230" y="-50" width="120" height="80" as="geometry"/></mxCell></root></mxGraphModel></diagram></mxfile>